<?xml version="1.0" standalone="no"?><!DOCTYPE svg PUBLIC "-//W3C//DTD SVG 1.1//EN" "http://www.w3.org/Graphics/SVG/1.1/DTD/svg11.dtd" ><svg xmlns="http://www.w3.org/2000/svg"><metadata></metadata><defs><font id="Founder:FZHuangCao-S09	Regular" horiz-adv-x="256"><font-face font-family="FZHuangCao-S09" font-weight="400" font-stretch="normal" units-per-em="256" panose-1="3 0 5 9 0 0 0 0 0 0" ascent="221" descent="-91" x-height="0" bbox="6 -33 225 213" underline-thickness="12" underline-position="-79" unicode-range="U+4e00-9f50" /><missing-glyph horiz-adv-x="256" d="M9 44 l0 3 q0 9 1 18 q0 1 1 3 q1 10 4 30 q3 18 4 28 l0 8 q0 6 -1 12 q-1 9 12 9 l12 0 l-10 -47 q-3 -15 -5 -46 q-1 -15 -2 -30 q0 -5 -3 -12 q-14 10 -13 24 ZM30 6 l0 -4 q-1 -2 -3 -2 q-1 0 -1 0 q-10 0 -14 0 q-7 1 -6 9 q0 2 1 6 q0 1 1 2 q2 1 7 2 q14 -3 15 -13 Z" /><glyph glyph-name="" unicode="&#x4e00;" d="M169 111 q10 2 22 -3 q13 -8 5 -17 q-7 -6 -17 -3 q-18 2 -64 -11 q-14 -6 -33 -7 q-24 0 -26 5 q2 5 22 13 q56 16 91 23 Z" /><glyph glyph-name="" unicode="&#x4e07;" d="M190 150 q3 -2 2 -7 q-2 -5 -5 -3 q-15 3 -33 -8 q-10 -8 -20 -13 q13 -11 6 -14 q-2 0 -4 -6 q24 -4 26 -15 q-1 -46 -29 -58 q-12 -4 -14 8 q-3 7 -4 15 q0 3 2 1 q10 -13 15 -7 q16 14 17 43 q-5 6 -13 9 q-21 -36 -64 -73 q-5 -4 -1 2 q36 36 55 75 q5 15 2 17 q-39 -17 -59 -8 q-3 1 -3 2 q-1 1 2 2 q15 4 35 13 q67 33 87 25 Z" /><glyph glyph-name="" unicode="&#x4e2a;" d="M129 192 q14 -8 7 -23 q-1 -2 -7 -10 q-12 -17 -28 -44 q-24 -40 -42 -48 q-12 -7 -21 -16 q-5 -4 -2 1 q20 23 36 51 q0 0 1 2 q18 30 27 42 q14 22 22 41 q1 5 7 4 ZM122 129 q69 1 103 -45 q0 -10 -14 -8 q-10 8 -17 11 q-2 1 -1 1 q-5 7 -41 22 q-16 4 -29 15 q-3 2 -4 3 q0 1 3 1 ZM121 98 q10 -9 11 -22 q-2 -12 -1 -35 q0 -17 -10 -41 q-6 -7 -10 -18 q-2 -3 -3 -3 q0 0 0 3 q1 30 4 48 q3 29 0 36 q-2 7 -2 14 q0 7 2 8 q1 2 2 7 q-1 3 1 4 q1 1 6 -1 Z" /><glyph glyph-name="" unicode="&#x4eca;" d="M125 197 q2 -3 8 -10 q3 -4 5 -5 q3 -5 -1 -10 q-1 -1 -1 -1 q-3 -4 -10 -15 q-16 -27 -36 -55 q-15 -18 -45 -41 q-3 -3 -4 -2 q0 2 3 5 q34 35 58 87 q12 24 14 27 q3 4 1 10 q-2 2 0 8 q0 4 3 4 q2 1 5 -2 ZM119 131 q-5 2 1 1 q12 -3 29 -13 q12 -7 22 -12 q20 -11 31 -19 q14 -13 8 -20 q-8 -8 -16 1 q-8 7 -19 14 q-5 3 -24 19 q-6 5 -7 7 q-12 12 -25 22 ZM117 92 q11 -3 17 -6 q7 -6 5 -12 q-9 -8 -18 0 q-5 4 -9 11 q-3 4 -1 6 q1 2 6 1 ZM149 56 q9 0 16 -5 q6 -5 0 -15 q-11 -17 -17 -21 q-2 -1 -5 -5 q-2 -2 -4 -4 q-15 -12 -30 -24 q-5 -3 -6 -2 q-1 1 3 4 q29 39 39 61 q-8 -3 -28 -15 q-28 -12 -41 3 q-2 3 -1 5 q1 1 5 1 q4 -3 13 1 q15 8 34 12 q0 0 2 0 q9 1 20 4 Z" /><glyph glyph-name="" unicode="&#x4ece;" d="M187 155 q2 -4 -2 -11 q-10 -22 -20 -55 q10 -5 20 -8 q19 -8 27 -42 q0 -10 -10 -9 q-8 6 -13 21 q-6 13 -24 36 q-10 -27 -23 -40 q-18 -18 -23 -25 q-3 -4 -4 -2 q-1 1 2 6 q25 32 43 109 q7 26 1 35 q-1 6 5 5 q16 -8 21 -20 ZM97 167 q27 -15 14 -38 q-17 -34 -30 -55 q30 -7 28 -22 q-2 -10 -7 -8 q-7 4 -11 12 q-4 6 -11 16 q-8 -12 -24 -31 q-5 -4 -17 -14 q-6 -5 -7 -6 q-8 -7 -2 2 q20 18 56 110 q8 19 5 29 q-2 4 0 5 q1 2 6 0 Z" /><glyph glyph-name="" unicode="&#x4ee5;" d="M173 173 q23 -7 15 -33 q-1 -2 -3 -9 q-4 -11 -5 -15 q-4 -17 -10 -36 q22 -1 27 -10 q6 -9 -2 -15 q-3 -3 -6 -6 q-15 -15 -36 -28 q-3 -3 -4 -1 q0 2 3 4 q22 15 33 39 q1 8 -14 6 q-14 -3 -12 19 q0 1 0 3 q3 12 4 18 q6 25 5 46 q-1 9 5 18 ZM66 138 q6 -19 8 -54 q6 4 15 14 q2 2 3 2 q1 -1 0 -4 q-8 -14 -20 -39 q-1 -14 -11 -16 q-7 2 -11 16 q-4 15 0 25 q12 29 12 55 q0 3 1 4 q1 0 3 -3 ZM114 117 q-1 2 0 3 q0 1 3 0 q15 -7 15 -15 q-3 -15 -3 -23 q-4 -9 -10 -10 q-13 10 -10 26 q6 10 5 19 Z" /><glyph glyph-name="" unicode="&#x4eec;" d="M91 189 q15 -18 6 -24 q-3 -3 -18 -33 q-12 -26 -43 -52 q-9 -8 -2 2 q14 20 23 38 q8 16 21 53 q3 7 6 14 q3 6 7 2 ZM130 163 q13 -14 14 -18 q0 -11 -8 -10 q-6 3 -10 -1 q-3 -2 -5 -1 q-1 2 2 4 q4 3 2 9 q-4 3 -2 13 q0 4 2 5 q1 1 5 -1 ZM191 152 q12 0 14 -8 q3 -32 4 -79 q0 -3 -1 -11 q0 -26 1 -31 q5 -29 -1 -32 q-8 -2 -13 5 q-6 6 -21 14 q-6 2 -5 4 q1 2 7 1 q16 -4 17 3 q1 46 2 84 q-1 28 -4 40 q-4 4 -11 -2 q-10 -10 -32 -11 q-5 0 -1 5 q24 13 44 18 ZM111 127 q16 -1 20 -14 q0 -8 -2 -10 q-2 -2 -10 1 q-12 -54 -9 -67 q2 -16 3 -27 q-1 -6 -3 -7 q-3 -1 -6 3 q-9 12 6 97 q3 16 -1 18 q-3 2 -3 4 q1 1 5 2 ZM67 95 q-2 11 5 9 q0 -31 0 -56 q1 -22 3 -22 q4 -1 3 -7 q-3 -16 -10 -10 q-12 10 -11 24 q1 15 8 47 q3 12 2 15 Z" /><glyph glyph-name="" unicode="&#x4f1a;" d="M124 202 q16 -17 8 -29 q-4 -4 -10 -17 q-6 -12 -17 -25 q-6 -7 -17 -27 q-17 -28 -51 -49 q-5 -2 -2 1 q43 50 73 120 q5 13 4 17 q4 12 12 9 ZM126 151 q81 -22 90 -67 q-6 -10 -16 3 q-9 14 -28 26 q-4 0 -12 7 q-2 2 -2 3 q-12 9 -34 25 q-2 1 -1 2 q0 0 3 1 ZM122 99 q11 2 16 -2 q6 -6 3 -12 q-19 -21 -41 3 q-1 4 4 5 q8 2 18 6 ZM132 67 q-1 1 0 1 q1 0 3 0 q4 -5 11 -5 q6 -2 5 -10 q-7 -2 -11 -9 q-4 -6 -8 -8 q-5 -3 -16 -15 q-1 -2 -1 -2 q-1 -2 3 -2 q18 11 43 8 q10 -5 9 -16 q-5 -9 -13 -9 q-7 2 -21 -11 q-6 -4 -2 2 q11 16 7 16 q-9 -5 -28 -11 q-4 -1 -7 -3 q-16 -7 -20 7 q-5 7 1 12 q15 13 22 25 q-31 -10 -28 11 q1 6 6 4 q-5 -5 36 9 q7 2 8 5 q0 0 1 1 Z" /><glyph glyph-name="" unicode="&#x4f4f;" d="M158 180 q-2 1 -1 3 q1 1 4 1 q33 -7 24 -24 q-7 -8 -21 -2 q-2 0 -3 0 q0 1 1 3 q0 6 -4 19 ZM179 136 q14 7 25 1 q7 -8 -4 -13 q-11 -3 -28 -12 q-6 -11 0 -24 q4 -8 4 -15 q2 0 7 -1 q3 -5 3 -11 q-10 -18 -16 -27 q0 -1 -1 -4 q-1 -4 0 -4 q20 2 27 -2 q7 -6 3 -15 q-6 -5 -11 -4 q-1 -1 -10 -2 q-6 -1 -7 -1 q-5 -2 -6 -1 q0 1 5 4 q2 1 3 3 q-1 1 -3 2 q-2 -1 -8 -2 q-8 0 -13 0 q-4 0 -8 7 q0 1 0 2 q-5 3 -1 7 q11 11 16 21 q0 5 0 10 q-8 -1 -12 -4 q-3 -1 -4 -1 q0 1 1 4 q4 9 16 14 q0 22 6 42 q-12 -4 -22 -5 q-11 -2 -28 -9 q-2 -1 -3 0 q0 2 2 4 q27 18 67 36 ZM93 172 q4 7 20 -6 q4 -4 -1 -10 q-11 -9 -16 -21 q-28 -49 -39 -58 q-7 -6 -38 -37 q-3 -4 -5 -3 q0 1 3 6 q18 23 37 54 q32 60 39 75 ZM87 95 q1 -51 4 -86 q-3 -10 -15 -5 q-12 20 -5 22 q2 22 11 69 q0 2 3 2 q1 0 2 -2 Z" /><glyph glyph-name="" unicode="&#x4f60;" d="M142 187 q0 4 5 3 q5 -1 6 -5 q3 -30 -7 -45 q-14 -18 -15 -22 q29 13 42 17 q14 4 27 2 q13 -2 16 -9 q5 -20 -40 -36 q-4 -1 -5 0 q0 2 3 4 q21 8 30 28 q1 4 -7 7 q-21 5 -45 -12 q-3 -3 -7 -5 q-4 -3 -24 -17 q-6 -5 -7 1 q-3 7 1 22 q5 15 19 45 q8 17 8 22 ZM87 175 q29 1 20 -18 q-26 -37 -41 -66 q-18 -28 -29 -36 q-9 -6 -16 -15 q-5 -3 -2 2 q37 51 61 112 q2 6 1 12 q-5 8 6 9 ZM150 99 q9 1 14 -2 q3 -9 3 -21 q-1 -3 -1 -12 q0 -10 1 -18 q2 -35 -7 -48 q-6 -6 -9 -2 q-1 2 -3 4 q-7 12 -11 16 q-2 3 2 2 q0 -1 2 -1 q12 -5 12 -1 q2 37 0 60 q-2 15 -5 17 q-3 1 -3 3 q1 2 5 3 ZM69 78 q0 2 4 -2 q4 -9 5 -21 q1 -22 6 -47 q1 -10 -10 -12 q-20 3 -16 23 q5 17 6 36 q0 1 1 9 q2 10 4 14 ZM189 59 q24 2 32 -25 q0 -15 -16 -11 q-4 4 -10 1 q-6 -2 -2 2 q8 8 -6 29 q-2 2 -1 3 q0 1 3 1 ZM119 46 q8 -5 9 -6 q3 -4 10 3 q2 1 1 -1 q-3 -3 -2 -9 q1 -9 -9 -13 q-12 -3 -15 7 q-2 9 0 16 q2 5 6 3 Z" /><glyph glyph-name="" unicode="&#x540d;" d="M128 191 q18 -2 15 -10 q-5 -13 -11 -23 q-3 -4 -2 -5 q1 -2 6 0 q13 1 18 -6 q0 -11 -10 -24 q-17 -21 -31 -44 q-30 -51 -62 -66 q-7 -4 -8 -3 q-1 2 5 8 q20 17 46 55 q-7 0 -15 13 q-3 2 -3 4 q1 2 5 3 q18 1 23 -3 q21 27 28 52 q-6 0 -10 0 q-8 -13 -27 -20 q-4 -2 -5 0 q-1 2 2 5 q27 35 29 57 q-2 7 7 7 ZM178 58 q-2 -17 -22 -34 q7 -2 18 -5 q7 -6 -1 -12 q-7 -2 -23 -1 q-12 1 -13 3 q-7 10 4 19 q9 9 16 24 q1 5 -1 6 q-2 2 -6 0 q-18 -11 -32 -16 q-15 -5 -6 -16 q6 -11 7 -17 q-2 -10 -15 -5 q-13 10 -11 37 q0 6 3 7 q2 0 9 -4 q32 24 57 29 q18 2 16 -15 Z" /><glyph glyph-name="" unicode="&#x540e;" d="M146 209 q8 2 22 -10 q5 -5 3 -10 q-2 -4 -11 -6 q-8 -3 -18 -9 q-24 -16 -70 -31 q-8 0 -13 -3 q-4 -2 -4 -1 q0 2 4 5 q1 0 3 2 q8 5 12 8 q29 16 56 42 q1 1 5 5 q9 7 11 8 ZM86 136 q13 -7 14 -14 q-2 -7 -1 -22 q7 0 17 4 q17 6 36 12 q18 6 21 8 q18 7 30 -6 q2 -7 -8 -7 q-7 -1 -17 -5 q-4 -1 -12 -3 q-5 -2 -7 -2 q-11 -3 -20 -16 q-13 -19 -17 -38 q23 16 37 22 q32 3 30 -17 q-2 -3 -7 -11 q-3 -4 -5 -8 q-3 -4 -10 -13 q-2 -2 -3 -4 q20 -5 22 -14 q4 -11 -43 -26 q-9 -2 -18 -8 q17 13 31 30 q1 2 1 2 q0 1 -2 1 q-5 0 -10 -1 q-19 1 -18 14 q8 5 12 9 q2 2 6 6 q3 4 6 7 q4 4 8 14 q-23 -3 -40 -21 q-11 -13 -5 -27 q4 -5 1 -7 q-22 -6 -19 19 q2 18 15 41 q13 25 26 39 q-3 0 -11 -2 q-2 0 -3 0 q-17 -3 -25 0 q-6 -60 -36 -82 q-9 -6 -20 -19 q17 20 30 74 q3 15 4 30 q1 15 1 32 q-1 13 9 9 Z" /><glyph glyph-name="" unicode="&#x5723;" d="M133 183 q15 5 23 -2 q4 -6 -4 -11 q-9 -8 -12 -15 q-2 -4 -6 -9 q-7 -11 -14 -24 q43 -3 71 -14 q18 -8 20 -17 q0 -7 -5 -8 q-6 -1 -11 5 q-14 16 -78 22 q-4 0 -5 -3 q-38 -49 -60 -48 q-4 -1 -5 0 q0 1 3 4 q21 13 48 47 q1 1 -1 2 q-4 1 -15 3 q-3 1 -5 2 q-5 0 -5 1 q0 1 5 2 q2 0 7 0 q7 0 17 1 q3 0 7 3 q1 1 2 5 q10 16 20 35 q1 2 -2 1 q-14 -2 -22 1 q-5 2 4 7 q13 4 23 10 ZM124 90 q5 -7 10 -16 q0 -5 6 -3 q11 1 10 -4 q2 -9 -14 -18 q-5 -4 -5 -7 q0 -5 0 -8 q0 -3 2 -3 q11 2 20 -4 q12 -12 0 -20 q-5 -3 -11 -6 q-8 -1 -15 -6 q-7 -3 -10 -3 q-2 0 1 3 q2 3 5 5 q9 6 13 12 q0 1 -1 2 q0 0 -2 0 q-22 -7 -21 6 q-2 6 0 18 q-1 1 -2 2 q-20 -4 -26 6 q-3 2 -3 4 q1 2 5 3 q14 4 25 8 q5 1 5 11 q-1 25 8 18 Z" /><glyph glyph-name="" unicode="&#x5927;" d="M111 177 q-1 3 0 3 q0 1 3 -1 q8 -5 13 -4 q16 -6 13 -29 q-3 -10 -3 -15 q3 1 10 4 q8 2 11 4 q17 1 25 -6 q-4 -18 -23 -23 q-6 -2 -18 -5 q-4 -2 -7 -2 q-3 0 -2 -3 q-2 -20 -10 -46 q-12 -36 -40 -39 q-28 -5 -29 10 q-2 5 0 7 q2 3 6 1 q10 -6 19 0 q16 9 24 28 q6 15 9 33 q-5 -2 -13 -5 q-17 -6 -32 6 q-4 3 -8 5 q-3 1 -2 2 q0 1 4 3 q34 12 51 18 q3 1 3 4 q0 2 0 6 q1 4 1 6 q3 16 1 26 q-3 4 -6 12 ZM166 62 q11 -8 21 -17 q12 -16 3 -31 q-8 -1 -14 7 q-6 7 -14 14 q-8 5 -14 14 q-5 8 -16 17 q-3 0 -2 1 q0 1 4 2 q16 1 32 -7 Z" /><glyph glyph-name="" unicode="&#x5929;" d="M87 157 q12 3 20 8 q46 22 52 4 q3 -11 -6 -14 q-10 1 -22 -2 q-28 -12 -43 -2 q-3 1 -4 3 q0 2 3 3 ZM156 128 q10 -3 10 -14 q-7 -9 -20 -13 q-3 -2 -6 -3 q-6 -3 -9 -4 q-6 -6 -12 -29 q38 -11 58 -27 q14 -13 16 -29 q-7 -9 -19 0 q-10 11 -16 17 q-1 0 -2 1 q-20 14 -37 36 q-14 -44 -44 -63 q-3 0 -4 0 q-1 0 1 2 q28 43 39 77 q1 4 -1 2 q-27 -11 -41 9 q-3 2 -2 4 q0 2 3 2 q8 0 16 4 q22 11 37 17 q0 1 3 9 q3 8 4 10 q5 8 11 2 q4 -10 15 -10 Z" /><glyph glyph-name="" unicode="&#x5b57;" d="M116 184 q-4 3 -3 6 q1 2 6 2 q25 -5 24 -24 q1 -9 -14 -9 q-9 0 -15 -1 q-7 -2 -9 0 q-1 1 5 4 q20 6 6 22 ZM124 146 q39 15 57 9 q10 -4 10 -13 q0 -8 -11 -13 q-21 -8 -32 -16 q-3 -1 0 -2 q10 -6 -2 -17 q-21 -19 -16 -21 q1 -2 5 -8 q3 -7 5 -8 q1 -2 3 -1 q4 0 14 -1 q8 0 12 0 q10 -1 5 -11 q1 -7 -27 -2 q-2 1 -2 -2 q3 -24 -5 -36 q-7 -6 -17 -8 q-25 -2 -38 12 q-5 5 -6 13 q-2 9 5 14 q21 13 45 19 q3 1 2 3 q-2 7 -6 14 q-6 5 5 21 q1 2 -1 1 q-21 -14 -36 -7 q-4 0 -3 2 q1 1 6 3 q7 2 19 8 q6 3 9 5 q13 8 19 8 q14 14 21 27 q1 2 -2 2 q-24 -8 -35 -16 q-14 -10 -39 -2 q-2 1 -2 -3 q-1 -12 -12 -15 q-9 -3 -10 10 q-1 19 16 37 q7 9 5 -16 q-1 -6 5 -4 q7 2 23 9 q7 3 11 5 ZM135 41 q0 2 -3 1 q-23 -5 -43 -12 q-6 -3 -7 -5 q-3 -3 0 -4 q18 -16 41 -11 q8 0 10 7 q1 7 2 24 Z" /><glyph glyph-name="" unicode="&#x5b59;" d="M110 172 q5 -3 4 -9 q-7 -16 -15 -26 q-15 -18 -13 -39 q0 -1 0 -2 q2 -8 4 -10 q4 3 12 11 q1 2 3 2 q1 -1 0 -3 q-5 -8 -11 -22 q10 -30 12 -50 q-1 -17 -9 -26 q-11 -9 -19 2 q-5 5 -17 18 q-3 2 -2 3 q1 1 4 0 q22 -15 25 -7 q4 8 -2 46 q-30 -43 -37 -34 q-9 5 -4 12 q19 24 35 39 q1 1 0 4 q-4 8 -6 16 q-2 7 15 51 q-32 -27 -51 -7 q-2 7 1 8 q7 0 20 7 q29 17 51 16 ZM161 169 q8 -1 10 -10 q2 -24 0 -39 q-2 -15 -2 -49 q1 -41 3 -51 q1 -8 0 -13 q-4 -5 -11 -1 q-3 3 -4 10 q-2 4 -4 8 q-1 2 1 1 q7 -3 6 0 q0 19 0 39 q0 48 0 67 q-1 9 -1 17 q-1 8 -2 12 q-3 8 4 9 ZM224 70 q-2 -11 -17 -13 q-2 0 -5 -1 q-4 -1 -5 0 q-5 -2 -2 2 q3 4 6 12 q-1 19 -14 22 q-5 0 0 2 q30 7 37 -24 ZM133 81 q0 -1 0 -2 q2 -10 2 -17 q-3 -7 19 15 q5 4 1 -1 q-15 -16 -14 -29 q-5 -12 -14 -7 q-9 8 -3 47 q0 5 4 3 q4 -3 5 -9 Z" /><glyph glyph-name="" unicode="&#x5e74;" d="M110 199 q6 -1 12 -19 q20 6 28 8 q7 1 10 3 q9 1 11 -8 q-5 -11 -18 -19 q-6 -4 -9 -3 q-4 -1 -1 -4 q2 -2 2 -16 q5 -1 12 5 q9 -4 6 -9 q-3 -3 -6 -5 q-10 -8 -13 -11 q0 -6 0 -11 q4 0 11 0 q2 -1 1 -4 q0 -6 -13 -14 q0 -5 -1 -14 q0 -8 0 -11 q35 8 47 10 q2 0 2 2 q0 1 -3 2 q-5 5 9 3 q4 -3 16 -3 q5 -1 4 -7 q-2 -4 -9 -4 q-12 -2 -53 -13 q-5 -1 -7 -1 q-7 -1 -6 -6 q-1 -47 -8 -73 q-2 -2 -5 2 q0 3 0 18 q0 26 1 54 q-27 -7 -36 -11 q-26 -7 -33 -2 q-3 1 -2 3 q1 1 4 2 q3 -1 6 1 q36 12 62 19 q0 13 0 20 q0 1 -2 2 q-11 -5 -34 -23 q-3 -1 -1 1 q12 11 35 30 q2 1 0 1 q-16 -7 -21 -11 q-4 -2 -4 0 q-1 17 2 16 q2 -1 6 3 q1 2 13 12 q3 3 8 8 q0 3 0 5 q-17 -8 -24 -10 q-2 -1 -3 1 q0 0 0 1 q0 8 2 11 q11 12 24 31 q-8 -4 -23 -11 q-11 -5 -12 3 q-1 17 7 33 q4 5 6 13 ZM135 153 q-1 0 -2 0 q-17 -15 -19 -22 q-1 -3 1 -2 q9 2 20 7 q0 8 0 17 ZM133 108 q-2 1 -6 -4 q3 0 5 2 q1 1 1 2 Z" /><glyph glyph-name="" unicode="&#x609f;" d="M71 167 q1 21 12 13 q11 -12 7 -29 q-7 -22 -7 -32 q2 1 7 5 q10 7 19 -2 q5 -5 -25 -24 q-5 -3 -4 -8 q-5 -33 -6 -55 q-2 -23 -1 -32 q1 -12 -4 -12 q-9 -2 -7 19 q0 9 1 20 q1 20 3 51 q-1 2 -2 1 q-5 -4 -11 -11 q-10 -10 -13 -1 q-10 20 3 36 q8 8 13 -2 q0 -1 0 -1 q1 -1 3 0 q11 4 10 11 q0 3 0 11 q2 32 2 42 ZM167 181 q7 2 12 -5 q4 -7 1 -11 q-3 -5 -6 -14 q-1 -3 -1 -4 q-1 -2 1 -2 q13 -2 18 -12 q12 -16 -21 -34 q-2 -2 1 -2 q12 4 26 5 q11 0 10 -5 q1 -6 -8 -5 q-16 -1 -27 -11 q-17 -11 -33 -33 q-2 -2 2 -1 q25 17 36 17 q7 1 7 -5 q2 -10 -7 -19 q-1 -2 -1 -3 q0 -1 2 0 q15 0 16 -4 q2 -6 -6 -9 q-3 -2 -8 -5 q-3 -2 -6 -4 q-5 -4 -6 -3 q-1 2 3 6 q6 8 1 7 q-24 -14 -23 2 q-1 7 4 11 q6 6 12 14 q1 1 2 2 q0 1 -1 1 q-18 -7 -27 -18 q-6 -8 -5 -16 q0 -4 -3 -6 q-1 0 -1 0 q-3 -3 -5 -1 q-1 1 -1 7 q-2 23 35 60 q2 1 -2 0 q-12 -5 -38 -13 q-12 -6 -18 -5 q-5 0 -6 2 q-1 1 3 3 q6 2 12 6 q13 5 23 10 q5 1 10 5 q0 0 1 1 q25 17 33 32 q4 7 -10 8 q-2 0 -4 -3 q-13 -17 -27 -28 q-3 -2 -6 -4 q-4 -3 -6 -4 q-7 -4 -8 1 q-4 10 3 16 q20 25 36 31 q5 2 6 6 q0 1 1 3 q4 10 4 17 q1 2 -3 1 q-2 -1 -4 -1 q-13 -3 -19 -2 q-5 -1 -6 0 q-2 2 2 4 q14 9 30 14 Z" /><glyph glyph-name="" unicode="&#x6211;" d="M153 194 q9 -2 17 -14 q5 -10 11 -12 q13 -12 -7 -25 q-7 -3 -16 -8 q-3 -2 -2 -4 q4 -16 11 -31 q6 4 15 5 q13 0 14 -10 q-2 -13 -16 -32 q24 -59 28 -59 q3 0 6 -13 q-6 -7 -14 0 q-2 4 -5 9 q-14 35 -21 52 q-5 -3 -10 -12 q-11 -15 -23 -27 q-13 -12 -20 -3 q-1 3 5 7 q9 -7 44 45 q-4 7 -8 19 q-3 8 -3 10 q-30 -16 -60 -40 q1 -49 -11 -62 q-5 -4 -15 -1 q-25 15 -23 35 q3 12 23 23 q3 1 9 4 q3 2 5 3 q0 17 -1 27 q0 11 0 19 q-2 3 -4 2 q-13 -6 -28 -5 q-12 3 -8 18 q4 19 24 39 q1 1 4 5 q19 23 22 28 q6 2 10 -6 q-4 -14 -16 -19 q-13 -7 -27 -23 q-21 -28 -8 -34 q5 -2 28 7 q2 1 1 7 q-5 16 3 18 q8 -8 10 -19 q21 8 44 19 q2 -1 2 4 q-3 9 -4 35 q3 17 14 19 ZM205 191 q17 -10 10 -21 q-11 -4 -13 0 q0 9 -1 12 q0 4 0 6 q-2 2 4 3 ZM152 181 q-7 -8 1 -37 q0 -1 0 -1 q0 -3 4 -1 q12 7 17 12 q1 6 -13 27 q-7 6 -9 0 ZM144 126 q-19 -9 -46 -21 q0 -9 0 -19 q1 -8 1 -25 q33 24 58 36 q-6 11 -11 29 q-1 1 -2 0 ZM183 96 q-5 6 -15 0 q4 -13 9 -22 q9 14 6 22 ZM85 42 q-15 -8 -26 -18 q-5 -7 1 -13 q7 -8 18 -11 q5 -1 8 16 q0 15 -1 26 Z" /><glyph glyph-name="" unicode="&#x662f;" d="M153 190 q10 -2 8 -12 q-5 -4 -3 -12 q-1 -17 -14 -57 q-8 -17 -19 -8 q-7 4 -7 10 q-2 2 -4 7 q-2 5 2 9 q1 6 7 9 q3 0 7 2 q6 3 12 -1 q5 28 2 38 q-3 3 -4 3 q-1 0 -2 -2 q-10 -11 -23 -13 q-4 -1 -5 0 q-1 1 2 4 q1 1 7 5 q-1 -1 3 2 q9 4 12 8 q5 5 19 8 ZM100 153 q4 -4 6 -13 q0 -9 3 -15 q1 -5 1 -7 q0 -5 2 -10 q2 -8 -3 -10 q-10 -1 -13 6 q-4 11 -2 20 q1 3 1 15 q0 11 5 14 ZM133 126 q-2 5 -6 5 q-11 -3 -10 -8 q1 -8 5 -13 q4 -3 5 0 q3 8 6 16 ZM188 101 q2 -2 3 -3 q0 -2 -2 -3 q-4 -2 -9 -2 q-36 -1 -70 -19 q-29 -16 -53 -21 q-18 -6 -23 0 q-3 2 -3 3 q0 1 3 2 q3 1 9 4 q6 2 10 4 q84 35 135 35 ZM126 63 q14 8 25 8 q12 0 14 -6 q-2 -15 -29 -26 q-8 -2 -37 -16 q15 -1 23 1 q18 3 30 0 q4 -1 12 -3 q8 -3 15 -3 q7 -3 9 -6 q2 -4 3 -4 q6 -7 3 -11 q-10 0 -16 4 q-7 6 -22 8 q-52 3 -69 10 q-4 1 -4 2 q0 1 4 1 q3 1 9 1 q3 1 7 5 q36 20 48 34 q2 5 -4 7 q-13 -2 -29 -20 q-9 -8 -14 -11 q-11 -4 -12 4 q-1 4 1 8 q-1 3 6 6 q2 0 7 6 q7 3 2 -2 q-3 -3 -2 -3 q1 -1 5 0 q5 1 15 6 Z" /><glyph glyph-name="" unicode="&#x7a7a;" d="M100 195 q38 0 38 -34 q37 11 58 6 q12 -9 6 -16 q-3 -2 -20 -6 q-7 -2 -9 -2 q-5 -2 -1 2 q3 2 9 11 q3 3 -1 2 q-18 -4 -39 -11 q-49 -16 -64 -12 q-3 0 -3 2 q0 0 3 1 q0 0 2 0 q20 6 29 11 q-4 1 -6 1 q-2 0 -2 0 q0 1 2 3 q19 19 -5 34 q-4 0 -3 4 q1 3 6 4 ZM141 118 q20 2 39 -4 q4 -7 1 -13 q-12 -8 -41 -14 q-7 -2 -1 2 q10 6 18 20 q2 4 -2 5 q-25 2 -44 -17 q-5 -6 -8 -9 q-4 -15 -12 -12 q-6 1 -11 12 q-1 7 5 7 q5 0 10 3 q26 13 46 20 ZM93 54 q3 -1 16 6 q13 5 22 9 q9 3 21 1 q4 -4 4 -8 q-6 -14 -23 -37 q13 0 21 0 q8 0 12 -1 q11 -5 9 -21 q-3 -4 -17 -11 q-1 1 -12 -3 q-9 -4 -14 -6 q-5 -1 -1 2 q14 11 22 20 q1 3 1 3 q-1 1 -3 1 q-11 -4 -19 -5 q-9 -2 -17 -1 q-9 2 -7 15 q8 7 16 23 q-20 -8 -33 8 q-2 2 -1 3 q0 1 3 2 ZM71 110 q-6 -13 -16 -6 q-11 18 -5 19 q9 16 14 23 q2 3 3 3 q2 0 3 -3 q4 -17 1 -36 Z" /><glyph glyph-name="" unicode="&#x8bb0;" d="M85 182 q2 4 11 0 q17 -10 16 -16 q0 -10 -10 -8 q-10 -1 -13 9 q-3 5 -5 9 q-1 3 1 6 ZM180 165 q15 -1 13 -12 q-1 -2 -2 -4 q0 -1 0 -2 q-3 -16 -17 -36 q-3 -5 -4 -7 q-6 -20 -25 -23 q-6 -2 -5 -5 q0 -5 -1 -11 q-1 -13 1 -24 q0 -9 7 -10 q18 -6 44 -1 q12 2 19 13 q0 0 0 2 q6 11 7 21 q0 4 2 4 q1 0 2 -4 q0 -5 1 -14 q0 -2 1 -2 q0 -3 0 -6 q0 -12 -1 -15 q-7 -11 -21 -12 q-6 -2 -14 -2 q-19 -3 -43 5 q-16 4 -16 28 q-1 15 7 33 q1 3 0 7 q-5 6 4 8 q3 1 6 5 q10 17 15 29 q1 3 -3 4 q-5 -1 -7 2 q-5 4 -9 6 q-4 1 -3 3 q0 1 4 4 q23 13 38 16 ZM94 117 q-1 -10 -4 -19 q-13 -27 -14 -66 q-1 -5 0 -4 q0 -1 4 3 q8 13 17 28 q3 5 3 4 q1 0 1 -6 q-1 -2 -2 -6 q-4 -17 -5 -27 q-4 -22 -18 -16 q-16 5 -14 23 q0 30 8 60 q0 2 -2 0 q-26 -20 -39 -4 q-9 8 0 12 q7 0 27 13 q5 3 8 5 q7 5 12 7 q13 3 18 -7 Z" /><glyph glyph-name="" unicode="&#x8fd9;" d="M128 188 q26 -2 24 -18 q-11 -15 -17 -7 q-7 17 -11 21 q-2 2 4 4 ZM172 155 q4 -2 1 -6 q-4 -5 -9 -3 q-4 1 -10 -5 q-1 -1 -5 -4 q-5 -4 -6 -5 q1 -6 6 -11 q8 -11 -6 -30 q-4 -5 1 -6 q27 -13 38 -31 q0 -6 -5 -8 q-10 1 -15 10 q-5 5 -21 17 q0 -1 -1 1 q-4 1 -5 -1 q-26 -28 -51 -20 q-11 12 -3 25 q11 12 21 16 q9 1 23 -3 q2 -1 4 1 q0 1 1 2 q8 18 8 25 q-1 4 1 11 q0 0 1 1 q-38 -29 -57 -12 q-5 4 -1 4 q9 1 27 10 q54 29 63 22 ZM42 132 q5 -78 36 -104 q2 -3 5 -4 q10 -8 14 -11 q21 -13 62 -5 q39 12 62 44 q4 4 2 -1 q-14 -21 -16 -25 q-11 -23 -51 -28 q-43 -5 -64 11 q-8 6 -15 11 q-13 9 -15 14 q-24 29 -30 85 q0 6 4 16 q1 3 3 3 q2 -1 3 -6 ZM104 87 q-14 -2 -19 -19 q-1 -8 8 -9 q18 4 29 19 q3 4 -1 5 q-9 3 -17 4 Z" /><glyph glyph-name="" unicode="&#x90fd;" d="M97 211 q9 -10 10 -25 q-1 -4 3 -3 q6 -1 7 -5 q-2 -12 -10 -17 q-5 -4 -4 -7 q-2 -10 -4 -19 q0 -2 0 -2 q1 1 2 1 q25 0 16 -12 q-18 -19 -30 -34 q-3 -3 -1 -4 q18 13 29 12 q2 0 4 3 q8 11 23 26 q6 7 6 11 q0 5 7 1 q18 16 39 16 q10 1 11 -9 q-1 -22 -13 -29 q-4 -1 -6 -4 q-2 -1 0 -2 q13 -6 14 -18 q-3 -15 -13 -27 q-12 -9 -23 0 q-5 5 -6 2 q-1 -10 1 -17 q0 -9 -1 -16 q0 -2 0 -4 q-1 -3 -1 -6 q0 -5 1 -11 q1 -21 -4 -40 q-4 -9 -5 -4 q0 11 0 23 q0 9 0 21 q-1 8 -1 20 q1 9 1 15 q1 28 -2 75 q-1 1 -2 1 q0 0 -1 -1 q-11 -11 -21 -24 q-3 -4 -2 -5 q1 -6 2 -18 q0 -2 1 -4 q0 -19 -10 -27 q-7 -6 -13 -3 q-3 3 -7 6 q-6 2 -2 7 q2 4 3 6 q3 8 12 21 q3 4 2 7 q-1 1 -4 0 q-22 -10 -20 -21 q0 -8 1 -15 q0 -2 1 -3 q1 -8 -1 -11 q-2 -3 -6 0 q-14 3 -9 30 q-5 -5 -13 -15 q-6 -8 -9 -11 q-5 -5 -7 -4 q-2 1 2 6 q29 36 49 68 q0 1 -1 2 q0 0 -2 0 q-14 -3 -11 17 q0 1 0 5 q1 4 1 7 q0 2 -2 2 q-1 0 -1 0 q-13 -5 -22 2 q-6 2 4 7 q9 4 22 12 q6 1 5 7 q1 18 3 36 q-1 4 2 4 q2 1 6 -2 ZM182 119 q12 9 12 25 q0 3 -6 3 q-18 -4 -28 -10 q-4 -4 -2 -5 q0 -3 0 -6 q1 -2 1 -13 q-2 -10 -1 -35 q-1 -3 4 -2 q13 -5 20 3 q8 10 9 18 q0 7 -8 7 q-11 -1 -8 5 q1 5 7 10 ZM111 78 q0 2 -1 1 q-7 -10 -8 -21 q0 -3 2 -2 q8 2 7 22 Z" /><glyph glyph-name="" unicode="&#x9f50;" d="M120 211 q21 1 25 -11 q4 -12 -2 -16 q-10 -8 -18 3 q-5 9 -9 16 q-3 3 -2 5 q1 2 6 3 ZM163 179 q10 3 9 -6 q-2 -9 -8 -9 q-14 -2 -51 -19 q-31 -16 -42 -2 q-3 2 -2 4 q0 1 5 3 q13 2 41 13 q13 4 24 8 q20 7 24 8 ZM141 81 q12 -5 12 -20 q-2 -15 -1 -31 q0 -18 -2 -27 q-2 -8 -9 -24 q-4 -7 -6 -7 q-1 1 1 10 q6 35 0 96 q-2 4 5 3 ZM102 76 q7 -8 3 -36 q-2 -10 -3 -16 q-1 -4 -1 -8 q-3 -17 -9 -10 q-5 10 -1 22 q3 15 3 39 q0 13 8 9 ZM141 147 q6 -8 1 -13 q-10 -15 -14 -22 q51 -5 65 -15 q11 -13 5 -14 q-7 -3 -18 4 q-13 7 -60 11 q-4 0 -5 -1 q-21 -17 -50 -29 q-7 -3 -8 -2 q-1 1 5 5 q23 12 40 28 q1 1 0 2 q-33 8 -19 9 q8 0 22 1 q4 0 6 1 q1 0 2 1 q0 0 1 1 q8 12 16 30 q6 11 11 3 Z" /></font>
</defs>
</svg>
